<?xml version="1.0" encoding="UTF-8"?>
<svg id="Layer_1" data-name="Layer 1" xmlns="http://www.w3.org/2000/svg" viewBox="0 0 47.72 21">
  <defs>
    <style>
      .cls-1 {
        fill: #9b9b9b;
        stroke-width: 0px;
      }
    </style>
  </defs>
  <path class="cls-1" d="M46.19,14.84s-.01.08-.01.12c-.03.62-.26,1.15-.71,1.58-.31.29-.68.45-1.1.5-.3.03-.59.02-.88-.07-.26-.08-.48-.22-.66-.42-.02-.02-.04-.04-.07-.07,0,.11,0,.21,0,.3,0,.1,0,.2,0,.29v1.18c0,.1,0,.19,0,.3-.36.02-.71.02-1.06,0,0-.03,0-.05,0-.08,0-.3,0-.59,0-.89,0-1.06,0-2.12,0-3.19,0-.45,0-.9,0-1.34,0-.12,0-.24,0-.36.08-.03.94-.03,1.07,0v.46s.04-.02.05-.03c.26-.3.59-.46.98-.51.42-.06.82-.01,1.21.17.36.17.64.43.85.77.18.29.29.61.34.96,0,.07,0,.14,0,.2,0,.01,0,.03.01.04v.11ZM42.78,14.81c0,.22.05.43.15.62.12.23.29.39.53.49.22.09.45.1.68.07.35-.05.61-.23.78-.54.23-.43.22-.87,0-1.3-.11-.2-.27-.35-.48-.44-.22-.1-.45-.12-.68-.09-.34.05-.61.21-.78.51-.12.21-.18.44-.18.68Z"/>
  <path class="cls-1" d="M5.64,15.36c.63.48,1.3.84,2.03,1.1.73.25,1.49.37,2.26.38.04.12.04,1.21,0,1.36-1.32,0-2.57-.29-3.74-.89-1.88-.96-3.24-2.42-4.04-4.37-1.56-3.84-.12-8.32,3.65-10.47,3.46-1.97,7.49-1.11,9.81,1.09-.3.33-.6.66-.9.99-.02-.01-.03-.02-.04-.03-.55-.47-1.15-.87-1.81-1.17-.52-.24-1.06-.41-1.63-.51-.25-.04-.49-.08-.74-.09-.29,0-.57-.02-.86-.01-.27,0-.54.04-.81.08-1.19.2-2.28.65-3.22,1.4-1.27,1.02-2.11,2.32-2.51,3.9-.08.33-.14.67-.17,1.01-.03.35-.04.71-.02,1.06.08,1.17.41,2.26,1.02,3.26.13.21.27.41.43.61.02.02.03.04.06.06.02-.03.04-.06.05-.09.27-.52.55-1.03.82-1.55,1.21-2.28,2.41-4.56,3.62-6.85.41-.78.82-1.56,1.24-2.34.01-.03.03-.05.05-.09.02.04.04.07.06.1.64,1.21,1.28,2.42,1.92,3.63.58,1.1,1.16,2.2,1.74,3.3.04.08.1.11.19.11,1.42,0,2.83,0,4.25,0,.13,0,.14-.02.14.13,0,.29,0,.59,0,.88,0,.36-.04.71-.1,1.06-.23,1.45-.8,2.75-1.7,3.9-1.13,1.43-2.56,2.42-4.31,2.95-.37.11-.74.19-1.12.25-.26.04-.52.06-.78.07-.11,0-.23.02-.34.03-.01,0-.03,0-.05,0-.07,0-.08,0-.08-.08,0-.4,0-.81,0-1.21,0-.08,0-.08.09-.08,1.66-.03,3.12-.58,4.4-1.63.2-.16.38-.35.57-.52.07-.06.07-.06.02-.15-.57-1.08-1.14-2.16-1.71-3.23-.16-.3-.32-.6-.47-.9-.05-.09-.11-.12-.21-.12-1.67,0-3.34,0-5.01,0-.14,0-.11-.01-.18.11-.61,1.15-1.21,2.29-1.82,3.44-.01.03-.03.05-.04.09ZM8.3,10.35c.05,0,.09.01.12.01,1.2,0,2.4,0,3.6-.01.02,0,.05,0,.08,0-.03-.05-.04-.09-.07-.13-.35-.67-.71-1.34-1.06-2.01-.24-.46-.48-.92-.73-1.37-.01-.02-.03-.04-.05-.08-.65,1.2-1.27,2.39-1.9,3.6ZM17.1,11.73s-.08,0-.11,0c-.72,0-1.44,0-2.17,0-.02,0-.04,0-.05,0-.02,0-.03,0-.05.02.02.04.03.07.05.1.38.73.77,1.45,1.15,2.18.08.16.17.31.25.47.01.02.02.06.06.07.49-.88.78-1.82.87-2.83Z"/>
  <path class="cls-1" d="M27.36,12.03c-.32.21-.63.42-.94.63-.02-.02-.04-.03-.05-.05-.39-.43-.89-.6-1.46-.58-.46.02-.86.19-1.18.52-.21.21-.35.48-.44.76-.21.63-.13,1.23.21,1.8.24.41.61.67,1.08.77.35.08.69.07,1.03-.02.51-.14.87-.47,1.07-.96.03-.08.06-.17.08-.26,0-.01,0-.03,0-.05h-1.64c-.03-.09-.04-.83-.01-.99.02,0,.05,0,.08,0,.25,0,.51,0,.76,0,.57,0,1.13,0,1.7,0,.02,0,.05,0,.07,0,.02.06.03,3.17,0,3.32-.2.02-.41.02-.61,0-.05-.27-.1-.53-.15-.8-.02.03-.04.04-.05.06-.37.49-.87.76-1.47.84-.81.1-1.55-.07-2.22-.55-.5-.36-.82-.85-1.02-1.42-.15-.45-.2-.91-.15-1.38.04-.47.17-.91.42-1.31.45-.73,1.09-1.19,1.93-1.35.67-.13,1.32-.07,1.94.21.39.18.72.43.99.76.01.02.02.03.04.06Z"/>
  <path class="cls-1" d="M34.22,9.53h-1.08s0-.06,0-.08c0-.34,0-.67,0-1.01,0-.45,0-.9,0-1.35,0-.16-.02-.31-.08-.46-.1-.26-.29-.39-.57-.41-.23-.02-.44.05-.6.22-.13.14-.19.31-.21.49-.01.09-.01.19-.01.28,0,.74,0,1.48,0,2.22v.09h-1.07s0-.06,0-.09c0-.59,0-1.18,0-1.77,0-.23,0-.46,0-.69,0-.11-.03-.22-.06-.33-.1-.27-.29-.41-.57-.43-.47-.04-.73.29-.79.61-.02.11-.03.23-.03.34,0,.75,0,1.51,0,2.26v.09c-.06.02-.96.02-1.06,0v-4.25h1.06v.42s.04-.04.05-.05c.3-.37.71-.49,1.17-.47.13,0,.26.03.39.07.27.09.47.26.63.49.02.03.04.06.06.09.02-.03.04-.04.05-.06.28-.35.64-.55,1.09-.59.27-.02.53.01.78.13.31.15.53.38.67.69.12.26.18.53.18.82,0,.88,0,1.75,0,2.63v.08Z"/>
  <path class="cls-1" d="M27.45,9.53c-.41.02-.81.02-1.22,0-.13-.39-.26-.77-.39-1.15h-2.42c-.04.11-.07.22-.11.33-.09.25-.17.51-.26.76-.02.06-.02.06-.08.06-.36,0-.73,0-1.09,0-.02,0-.03,0-.06,0,0-.03.01-.06.02-.09.16-.44.32-.88.47-1.31.53-1.46,1.05-2.93,1.58-4.39,0,0,0-.01,0-.02.03-.07.03-.07.1-.07.41,0,.83,0,1.24,0,.09,0,.09,0,.11.08.68,1.9,1.37,3.8,2.05,5.7.01.03.02.07.03.11ZM25.49,7.35c-.03-.15-.82-2.43-.86-2.48-.29.82-.57,1.64-.85,2.48.58,0,1.14,0,1.71,0Z"/>
  <path class="cls-1" d="M36.28,9.09v.43c-.05.02-.93.03-1.07,0,0-.04,0-.07,0-.11,0-.59,0-1.19,0-1.78,0-.66,0-1.32,0-1.98,0-.64,0-1.27,0-1.91v-.1h1.07c0,.1,0,.2,0,.3,0,.1,0,.2,0,.29v1.51s.04-.02.05-.04c.27-.31.61-.47,1.01-.52.42-.05.83,0,1.21.19.38.19.67.48.87.85.24.44.33.91.29,1.41-.05.55-.26,1.03-.64,1.43-.31.32-.69.5-1.12.56-.32.05-.64.03-.96-.08-.24-.08-.46-.22-.63-.41-.02-.02-.03-.03-.05-.05,0,0,0,0-.03-.01ZM37.47,8.62c.07,0,.15-.01.22-.02.34-.06.6-.23.76-.54.22-.42.22-.85,0-1.27-.12-.23-.3-.39-.54-.49-.19-.08-.39-.1-.59-.08-.38.04-.68.22-.86.56-.2.38-.21.77-.05,1.15.12.31.34.52.66.62.12.04.25.06.39.06Z"/>
  <path class="cls-1" d="M33.79,17.04c-.81-.02-1.45-.35-1.89-1.03-.2-.3-.29-.64-.33-1-.05-.41.02-.79.19-1.15.31-.66.82-1.06,1.53-1.23.45-.1.89-.09,1.32.07.5.19.9.5,1.17.97.16.28.25.58.28.9.04.37,0,.73-.14,1.08-.33.77-.9,1.24-1.73,1.38-.07.01-.13.02-.2.03-.06,0-.13,0-.2,0ZM32.66,14.86c0,.06.02.16.04.26.08.34.27.6.59.77.19.1.39.13.6.11.4-.02.71-.2.91-.55.16-.27.2-.57.15-.88-.02-.14-.07-.27-.14-.4-.2-.35-.5-.54-.89-.57-.5-.04-.9.17-1.12.6-.1.19-.13.39-.14.65Z"/>
  <path class="cls-1" d="M39.6,16.92v-.47s-.04.04-.06.06c-.28.36-.66.52-1.1.54-.25,0-.49-.03-.73-.13-.35-.15-.58-.41-.73-.75-.11-.25-.17-.51-.18-.78,0-.08,0-.15,0-.23,0-.8,0-1.59,0-2.39,0-.03,0-.06,0-.1.36-.02.71-.01,1.07,0,0,.04,0,.07,0,.1,0,.73,0,1.47,0,2.2,0,.17,0,.35.07.51.11.32.35.49.68.51.13,0,.26,0,.39-.04.22-.07.38-.2.48-.41.07-.14.1-.29.11-.45,0-.16,0-.32,0-.48,0-.61,0-1.22,0-1.83,0-.03,0-.06,0-.09.06-.02.93-.02,1.07,0v4.24c-.35.02-.71.02-1.07,0Z"/>
  <path class="cls-1" d="M42.22,8.61c.35-.11.68-.21,1.02-.32.01.02.02.04.03.06.04.12.12.21.23.28.09.06.2.09.3.11.2.03.41.04.61-.02.07-.02.13-.05.19-.09.14-.09.19-.24.15-.4-.02-.07-.06-.12-.12-.16-.09-.07-.2-.1-.31-.12-.25-.05-.49-.09-.74-.14-.19-.04-.37-.1-.54-.19-.39-.2-.6-.52-.63-.95-.02-.24,0-.47.11-.68.13-.27.34-.46.6-.6.21-.11.44-.16.67-.19.32-.04.64-.01.95.09.3.1.56.26.75.51.11.14.19.31.23.49-.32.08-.64.16-.96.24,0-.02-.02-.03-.02-.04-.08-.22-.24-.33-.46-.37-.19-.04-.37-.02-.55.05-.13.05-.23.14-.26.28-.03.14.02.26.14.34.09.06.2.1.31.12.27.06.54.12.81.18.22.05.43.13.63.24.18.1.33.23.42.42.05.1.07.2.08.3.04.42-.04.8-.34,1.11-.19.2-.44.32-.7.4-.26.07-.53.1-.8.1-.32,0-.64-.05-.94-.17-.25-.1-.47-.23-.64-.44-.1-.13-.18-.27-.22-.44Z"/>
  <path class="cls-1" d="M29.77,13.32c.23-.34.55-.57.94-.68.21-.06.35-.08.45-.06v1.15c-.07,0-.13,0-.2,0-.17,0-.34,0-.5.05-.26.07-.45.24-.56.48-.08.16-.12.33-.13.51-.01.19-.02.39-.02.58,0,.5,0,.99,0,1.49,0,.03,0,.06,0,.1-.36.01-.71.02-1.07,0,0-1.42,0-2.83,0-4.24.05-.02.9-.02,1.06,0,0,.04.01.08.01.12,0,.15,0,.31,0,.46,0,.02,0,.03,0,.05h.02Z"/>
  <path class="cls-1" d="M40.46,5.3c.14-.03.97-.03,1.06,0v4.23c-.06.02-.99.02-1.06,0v-4.23Z"/>
  <path class="cls-1" d="M40.43,4.09c0-.32.25-.57.57-.57.32,0,.58.25.58.56,0,.33-.25.58-.58.58-.31,0-.56-.25-.56-.57Z"/>
</svg>