<?xml version="1.0" encoding="UTF-8"?>
<svg id="Layer_2" data-name="Layer 2" xmlns="http://www.w3.org/2000/svg" viewBox="0 0 56.02 17.89">
  <defs>
    <style>
      .cls-1 {
        fill: #9b9b9b;
        fill-rule: evenodd;
        stroke-width: 0px;
      }
    </style>
  </defs>
  <g id="Layer_1-2" data-name="Layer 1">
    <path class="cls-1" d="M17.33,9c0,1.86-.55,3.65-1.59,5.18-.78,1.15-1.83,2.09-3.05,2.73-1.22.65-2.6.99-4,.99-1.84,0-3.69-.59-5.33-1.71l-.17-.12.69-1.02.17.12c1.44.98,3.04,1.49,4.64,1.49,1.2,0,2.38-.29,3.43-.84,1.04-.55,1.95-1.36,2.61-2.33.9-1.32,1.37-2.87,1.37-4.49,0-.8-.14-1.62-.42-2.51-.15-.46-.37-.96-.64-1.43-.63.98-1.22,1.93-1.81,2.87l-.13.2c-.62.98-1.24,1.97-1.86,2.94l-.17.27-.75-1.11.07-.11c.6-.94,1.17-1.85,1.75-2.76l.07-.11c.76-1.2,1.54-2.44,2.3-3.63l.47-.74.53.7c.57.76,1.04,1.66,1.32,2.55.32,1.01.48,1.95.48,2.88ZM11.86,13.73c.01.37-.1.73-.31,1.03-.21.3-.51.53-.87.65-.18.06-.36.09-.56.1h-.05c-.35,0-.66-.09-.92-.26-.23-.14-.4-.34-.53-.58-.11-.22-.18-.47-.18-.74-.01-.43.12-.88.39-1.3.14-.22.3-.45.46-.67.09-.12.17-.24.26-.36l-2.44-4,.13-.19.46-.69.13-.19,2.87,4.59c.36.56.53.87.7,1.19.11.23.27.56.38.88.06.18.09.36.1.54ZM10.63,13.76c0-.06-.01-.12-.03-.18-.07-.2-.18-.46-.31-.72-.02-.04-.04-.08-.06-.11-.12.17-.24.34-.37.54-.13.2-.2.42-.19.61,0,.08.02.16.05.21.02.05.06.08.1.11.06.04.15.06.26.06h.02c.07,0,.13-.01.2-.04.11-.04.19-.1.26-.19.06-.09.09-.19.09-.3ZM13.7,1.81l-.7,1.01-.17-.12c-1.39-.97-2.94-1.48-4.48-1.48-1.13,0-2.25.28-3.25.8-.99.52-1.86,1.29-2.51,2.22-.89,1.29-1.36,2.87-1.36,4.57,0,.88.12,1.72.36,2.49.14.46.33.9.55,1.31.71-1.12,1.42-2.24,2.12-3.37,0,0,1.51-2.39,1.97-3.12-.12-.2-.26-.44-.38-.69-.11-.22-.26-.55-.37-.87-.06-.17-.09-.35-.09-.53-.01-.37.09-.73.3-1.03.21-.3.51-.53.87-.65.17-.05.35-.09.53-.09h.05c.33,0,.63.08.89.24.23.14.41.34.53.58.11.22.18.47.18.74.01.43-.12.88-.38,1.29l-.1.16h0c-.12.19-.24.35-.35.51-.14.2-.28.41-.42.62-.57.91-1.14,1.81-1.71,2.72l-.32.51c-.93,1.48-1.87,2.96-2.8,4.45l-.48.76-.54-.72c-.54-.73-.96-1.56-1.24-2.46-.28-.89-.42-1.85-.42-2.85,0-1.95.55-3.77,1.59-5.27.76-1.09,1.77-1.99,2.94-2.61,1.17-.62,2.49-.94,3.82-.94,1.79,0,3.59.59,5.18,1.7l.17.12ZM6.62,4c0,.06.01.12.03.18.06.19.17.45.31.71.01.03.03.05.04.08.1-.15.21-.31.31-.46l.03-.05c.13-.2.19-.42.19-.6,0-.08-.02-.16-.05-.22-.02-.04-.05-.08-.09-.1-.06-.04-.14-.05-.24-.05h-.02c-.06,0-.12.01-.17.03-.1.03-.18.1-.24.18-.06.09-.09.19-.09.3ZM21.54,17.42s.2.04.25.04c.4.03.88-.03,1.11-.39.04-.06.08-.12.11-.2.1-.27.12-.49.13-.78,0-.2,0-.41,0-.6,0-.3,0-.6.01-.9,0-.08.02-.22,0-.29h-.65c0,.06,0,.2,0,.26,0,.09,0,.18,0,.27,0,.12.01.39.01.52,0,.18,0,.36,0,.54,0,.16.01.38-.02.52-.06.31-.14.53-.51.57-.09,0-.16.01-.25,0-.04,0-.07-.02-.11-.03-.12-.03-.1-.1-.12.23v.25ZM46.23,17.02c0-.39.01-.78.01-1.17,0-.47,0-.9-.02-1.36,0-.06-.01-.14,0-.19h.67v.33c-.02.11-.02.22-.02.33,0,.22,0,.43,0,.66,0,.21,0,.45,0,.66,0,.1,0,.22,0,.33,0,.05,0,.11,0,.16,0,.05-.01.1,0,.15.05,0,.12,0,.18,0,.06,0,.12,0,.18,0,.11,0,.23,0,.34,0,.23,0,.46-.02.69-.02l-.02.52h-1.98s.01-.38.01-.38ZM51.82,16.88c.1.03.19.05.3.07.04,0,.07.01.11.02.03,0,.07,0,.11.01.08,0,.16,0,.24,0,.26,0,.64-.04.58-.38-.07-.38-.74-.46-1.17-.79-.17-.14-.32-.35-.32-.65,0-.31.12-.53.31-.67.35-.25.79-.24,1.23-.21.1,0,.14.02.22.03.08,0,.14.02.21.04,0,.04-.08.52-.09.53-.03,0-.07-.02-.1-.03l-.2-.05c-.17-.03-.4-.05-.58-.03-.14.02-.27.05-.34.15-.08.11-.04.28.05.36.12.12.47.25.66.33.36.16.64.37.74.75.04.18.02.47-.06.63-.03.06-.06.1-.1.15-.07.08-.17.16-.28.21-.25.11-.52.15-.84.15-.23,0-.25,0-.47-.03-.1-.01-.33-.05-.41-.08,0-.03.09-.43.11-.5v-.03s.08.02.11.03ZM26.99,17.4s.02-.7.02-.77c0-.53,0-1.04,0-1.57v-.38c-.02-.06-.01-.13-.02-.19,0-.06-.01-.14,0-.19h1.93s-.02.51-.02.52c-.03,0-.27,0-.33,0-.1,0-.22-.01-.32-.01-.1,0-.22,0-.33,0-.07,0-.25-.01-.33,0,0,.04.02.31.02.38,0,.05,0,.39.01.39h0s.5,0,.52,0c.09,0,.18,0,.27,0,.07,0,.19-.01.26,0v.49s-.53-.02-.53-.02c-.09,0-.18,0-.27,0-.03,0-.26,0-.27,0,0,0,0,0,0,0,0,.02,0,.2,0,.22,0,.08,0,.15,0,.23,0,.15,0,.29.01.44.05.02.75,0,.88-.01.06,0,.12,0,.17,0h.34s0,.2,0,.25c0,.08,0,.17-.01.25-.03,0-.96,0-1.01,0-.34,0-.68,0-1.01,0h0ZM40.45,17.41c0-.06,0-.14,0-.2,0-.07,0-.13,0-.19,0-.13,0-.25,0-.38,0-.26,0-.52,0-.78,0-.33,0-.65,0-.98,0-.07,0-.12,0-.19,0-.07,0-.13,0-.2,0-.06-.01-.14,0-.19h1.93s-.03.52-.03.52c-.05,0-.12,0-.16,0l-.48-.02c-.1,0-.22,0-.32,0-.09,0-.24-.01-.33,0,0,.06,0,.16,0,.23,0,.17.01.34.01.52,0,.03,0,.03.02.03h.36c.08,0,.15,0,.22,0,.1,0,.4-.02.46-.01v.49s-.09,0-.13,0h-.67c-.06-.01-.21-.02-.27-.01,0,.09,0,.86.02.9.03.01.3,0,.35,0,.11,0,.23,0,.35,0,.12,0,.23,0,.35-.01.06,0,.12,0,.17,0,.04,0,.13,0,.17,0l-.02.52s-.44,0-.51,0c-.5,0-1.03,0-1.52,0h0ZM33.34,17.19c-.04-.17-.11-.41-.17-.59-.04-.13-.08-.25-.12-.38-.04-.13-.09-.25-.13-.38-.04-.13-.09-.25-.13-.38-.04-.12-.09-.25-.13-.38l-.12-.38c-.02-.06-.11-.34-.1-.4h.75s.02.14.03.16l.25,1.05c.03.1.05.2.08.3.03.1.05.2.07.3.03.1.04.2.07.3l.05.32s.03-.02.04-.05c.02-.19.15-.67.2-.85.03-.1.06-.2.08-.3.08-.31.27-.92.29-1.24.03,0,.64,0,.68,0,0,.03,0,.06,0,.09.03.19.07.36.12.54.08.29.17.6.24.89.01.05.03.1.04.15.04.12.08.32.11.45.01.05.02.1.04.16.03.15,0,.16.06.15,0-.01.01-.06.01-.08.02-.19.22-.95.27-1.13.03-.1.05-.2.08-.3.01-.05.02-.11.04-.15.03-.1.08-.35.1-.45.01-.06.02-.11.03-.16l.02-.16s.62,0,.67,0c0,.08-.07.34-.09.41-.08.27-.16.5-.25.77-.08.25-.18.5-.26.75-.03.08-.11.32-.13.38-.02.06-.04.13-.06.19-.03.11-.12.38-.14.49,0,.02-.01.09-.02.11-.05,0-.61,0-.63,0l-.03-.16c-.04-.2-.14-.51-.2-.71-.07-.23-.33-1.01-.36-1.19,0-.02-.01-.05-.02-.07-.01-.05-.02-.1-.03-.16h-.04s0,.05-.01.08c0,.02-.01.05-.01.07l-.07.3s-.03.09-.04.14c-.05.18-.11.38-.16.56-.08.26-.17.58-.24.84-.01.05-.02.1-.03.15l-.02.15s0,0,0,0h0s0,0,0,0c0,0-.01,0-.02,0-.11,0-.57,0-.6,0l-.04-.22ZM52.1,5.97c-.9-.3-1.76-.58-2.15-.96-.16-.16-.26-.27-.32-.37-.05-.1-.08-.21-.08-.36-.02-.4.08-.74.28-1,.18-.23.43-.41.77-.54.34-.14.75-.22,1.21-.24.07,0,.13,0,.2,0,1.05,0,2.11.32,2.76.82l.17.13.87-1.13-.17-.13c-.89-.69-2.28-1.12-3.64-1.12-.08,0-.17,0-.25,0-.62.03-1.18.14-1.68.33-.58.23-1.04.56-1.37.99-.41.53-.61,1.18-.58,1.93.01.37.1.68.25.97.13.25.31.47.59.74.63.6,1.63.93,2.69,1.28,1.43.47,2.9.96,2.93,1.98.01.44-.1.81-.33,1.11-.24.31-.64.55-1.14.69-.31.09-.66.13-1.03.13-.34,0-.69-.04-1.05-.11-.77-.15-1.5-.47-2.01-.86l-.17-.13-.87,1.13.17.13c.67.52,1.62.93,2.6,1.12.45.09.9.14,1.33.14.51,0,.98-.06,1.42-.19.79-.23,1.44-.64,1.87-1.18.45-.56.66-1.25.64-2.04-.06-2.01-2.11-2.69-3.92-3.29ZM46.27,1.1l-3.87,9.18.76,1.73,4.6-10.92h-1.49ZM38.14,1.1h-1.49l4.85,11.51h1.49l-4.85-11.51ZM33.81,1.1v11.51h1.46V1.1h-1.46ZM29.82,1.1v11.07l.38.44h1.07V1.1h-1.45ZM22.81,1.06h-1.17v11.56h1.46V3.82l6.43,8.23v-2.19S22.81,1.06,22.81,1.06Z"/>
  </g>
</svg>