<?xml version="1.0" encoding="UTF-8"?>
<svg id="Layer_1" data-name="Layer 1" xmlns="http://www.w3.org/2000/svg" viewBox="0 0 44.47 21">
  <defs>
    <style>
      .cls-1 {
        fill: #9b9b9b;
        stroke-width: 0px;
      }
    </style>
  </defs>
  <path class="cls-1" d="M41.87,10.97c-.14.35-.34.68-.58.97-.14.17-.31.32-.51.42-.28.13-.55.1-.8-.1-.25-.21-.39-.5-.49-.8-.02-.05-.03-.09-.05-.14,0-.01-.01-.02-.03-.05-.04.06-.07.11-.1.16-.16.28-.35.53-.61.73-.18.13-.36.22-.59.21-.17,0-.32-.07-.43-.19-.07-.08-.12-.17-.18-.25-.03-.04-.04-.08-.07-.14-.04.05-.07.09-.1.14-.08.13-.2.22-.32.3-.37.25-.92.11-1.09-.4-.01-.04-.03-.09-.05-.15-.04.05-.07.08-.1.11-.18.2-.35.4-.53.59-.14.15-.29.31-.43.46-.04.04-.06.09-.06.15,0,.22,0,.44,0,.67,0,.24.03.48.02.72,0,.48-.05.97-.16,1.44-.05.22-.13.42-.26.61-.17.25-.41.36-.71.32-.24-.04-.39-.19-.47-.4-.09-.21-.09-.43-.07-.64.02-.25.08-.49.15-.73.16-.53.38-1.03.67-1.5.12-.2.27-.39.41-.59.04-.05.07-.11.08-.17.02-.23.02-.46.03-.69,0-.02,0-.03,0-.07-.05.06-.09.1-.13.15-.19.24-.44.31-.73.25-.28-.06-.44-.25-.52-.51-.01-.05-.03-.1-.04-.16-.03.03-.05.05-.07.08-.17.22-.36.41-.6.55-.24.14-.69.15-.91-.18-.06-.09-.12-.19-.18-.3-.02.02-.04.04-.06.06-.08.13-.19.24-.31.33-.38.29-.97.18-1.15-.4,0-.02-.01-.04-.02-.07-.06,0-.08.05-.11.09-.14.18-.32.32-.51.45-.21.14-.61.15-.81-.04-.09-.09-.16-.2-.24-.31-.02-.03-.04-.08-.07-.13-.03.04-.05.06-.07.09-.1.11-.19.23-.31.32-.43.34-1.05.1-1.15-.45-.14-.71.24-1.42.89-1.67.32-.12.64-.08.93.1.05.03.1.08.13.13.05.07.03.17-.03.22-.05.05-.15.05-.22,0,0,0,0,0-.01,0-.27-.26-.8-.18-1.07.13-.24.28-.32.62-.27.98.04.29.25.38.43.35.15-.03.27-.12.36-.24.15-.19.23-.41.27-.64,0-.04.02-.09.04-.12.07-.12.23-.12.29,0,.02.04.03.1.03.15.02.15.04.3.07.45.01.08.05.15.08.22.13.23.34.28.57.15.14-.08.26-.19.36-.32.17-.23.3-.47.44-.71.14-.25.31-.5.55-.67.33-.23.69-.31,1.08-.16.08.03.16.08.24.14.09.07.11.16.07.24-.05.09-.15.13-.24.08-.02,0-.03-.02-.04-.03-.29-.27-.84-.15-1.08.16-.22.28-.3.61-.25.96.04.32.33.45.6.28.13-.08.22-.19.29-.32.09-.15.14-.32.18-.49,0-.05.02-.09.04-.14.03-.06.08-.09.15-.09.07,0,.13.04.15.11.02.06.02.13.03.19.02.14.04.28.07.42.01.06.04.12.07.18.13.23.35.29.57.15.09-.06.18-.13.25-.21.18-.2.33-.42.45-.66.1-.2.2-.4.27-.62.04-.12.11-.24.17-.35.04-.07.11-.11.2-.09.07.02.12.07.13.14,0,.05,0,.11-.03.15-.21.38-.3.79-.29,1.23,0,.06,0,.11.02.17.08.3.39.39.62.18.17-.15.26-.35.33-.56.09-.26.16-.53.23-.8,0-.03.01-.07.03-.1.03-.08.09-.12.17-.11.08,0,.14.06.16.13,0,.05,0,.11,0,.17-.04.38-.08.76-.12,1.14-.02.17-.02.34-.03.51,0,.02,0,.03.01.06.04-.03.06-.04.09-.07.26-.28.53-.54.75-.86.11-.15.19-.32.29-.48.23-.36.47-.71.9-.85.32-.1.62-.08.9.11.05.03.09.07.12.11.06.07.05.16-.01.23-.05.06-.15.07-.23.02,0,0,0,0-.01,0-.18-.17-.41-.2-.64-.14-.24.06-.43.21-.56.42-.15.25-.19.53-.16.81.04.32.32.45.6.29.18-.11.28-.27.36-.45.05-.11.07-.22.1-.34,0-.02,0-.05.01-.08.03-.11.1-.17.19-.16.09,0,.15.08.16.19.02.16.03.32.06.48.02.09.06.17.09.26.1.23.36.24.52.16.14-.07.25-.17.35-.29.17-.22.32-.45.44-.7.04-.07.09-.14.12-.21.02-.04.02-.08.02-.12-.03-.3-.08-.6-.08-.9-.01-.46-.02-.93,0-1.39.02-.61.1-1.22.25-1.81.08-.3.18-.59.36-.85.03-.04.07-.08.1-.12.22-.25.61-.19.77.08.06.11.12.23.15.35.09.39.1.79.06,1.2-.08.85-.32,1.65-.66,2.42-.16.36-.33.72-.51,1.08-.04.08-.04.14-.02.23.06.25.13.5.24.73.03.07.07.13.11.19.18.28.54.25.72.1.11-.1.21-.21.3-.33.17-.23.31-.49.43-.74.06-.12.11-.15.21-.13.05.01.09.05.13.08v.16ZM39.59,10.12s.02,0,.03,0c.02-.04.04-.08.06-.12.05-.1.1-.21.14-.31.32-.73.57-1.48.7-2.27.05-.34.06-.69.03-1.03-.01-.14-.05-.27-.09-.41-.03-.1-.07-.19-.19-.21-.13-.01-.19.08-.23.17-.08.18-.16.36-.21.55-.07.31-.12.62-.17.94-.09.54-.11,1.08-.12,1.63,0,.23.01.46.02.69,0,.12.02.24.03.36ZM34.38,13.44s-.02,0-.03,0c-.02.03-.05.07-.07.1-.26.41-.47.85-.63,1.31-.11.32-.19.65-.21,1,0,.12.02.24.06.36.08.23.37.22.49.09.04-.05.09-.1.11-.16.07-.18.14-.37.19-.56.08-.33.09-.67.11-1.01.01-.26,0-.52,0-.79,0-.11-.01-.22-.02-.32Z"/>
  <path class="cls-1" d="M12.8,2.63s.07.04.09.08c.15.19.31.38.45.58.28.42.48.88.57,1.38.05.27.08.54.12.82.06.44.17.86.38,1.26.19.36.43.69.77.92.04.03.08.07.12.1.19.13.25.51.05.69-.08.07-.16.14-.24.2-.07.06-.14.11-.2.17-.15.15-.17.3-.06.49.06.1.14.2.22.29.04.05.09.11.14.16-.05.12-.1.24-.16.36-.06.12-.06.23.01.36.11.17.08.29-.08.42-.04.03-.08.07-.12.1-.17.14-.21.27-.15.49.04.13.07.25.11.38.06.2-.03.4-.22.53-.21.14-.45.19-.7.2-.37.01-.75-.02-1.12-.04-.89-.05-1.73.08-2.5.55-.6.37-1.07.86-1.41,1.48-.23.43-.38.89-.46,1.37-.1.67-.03,1.32.2,1.96.32.9.9,1.6,1.72,2.09.12.07.25.12.37.19.04.02.09.05.13.08,0,0,0,.02-.01.03-.04-.01-.09-.02-.13-.04-.37-.13-.72-.3-1.05-.5-.31-.19-.62-.4-.89-.65-.45-.41-.83-.87-1.12-1.4-.34-.63-.56-1.31-.67-2.01-.11-.73-.1-1.45.08-2.17.13-.49.33-.96.59-1.39.22-.38.48-.72.79-1.04.13-.14.25-.28.38-.42.18-.18.36-.35.56-.51.51-.42,1.03-.83,1.55-1.25.59-.49,1.09-1.05,1.48-1.71.37-.62.58-1.28.65-2,.02-.25.04-.5.04-.74,0-.53-.09-1.04-.23-1.55-.02-.09-.04-.17-.07-.26,0,0,.02-.01.02-.02Z"/>
  <path class="cls-1" d="M11.23,1.52c.11.05.18.14.24.23.42.62.71,1.29.8,2.04.03.21.05.42.04.62-.02.7-.16,1.38-.48,2-.19.36-.39.72-.59,1.08-.12.22-.29.4-.46.58-.23.25-.45.5-.69.73-.29.28-.59.55-.89.81-.48.43-.98.84-1.46,1.27-.36.32-.67.7-.97,1.08-.35.45-.61.95-.82,1.48-.12.3-.18.61-.21.93-.04.46-.03.92-.02,1.39,0,.32.08.63.16.94.09.34.19.67.28,1.01.02.08.05.17.02.26-.1,0-.14-.07-.18-.14-.09-.14-.17-.28-.25-.41-.33-.52-.62-1.05-.86-1.62-.26-.62-.49-1.26-.59-1.93-.05-.37-.05-.74-.03-1.11.01-.23.05-.46.1-.68.14-.64.44-1.21.85-1.72.52-.67,1.12-1.26,1.76-1.8.18-.15.35-.31.52-.47.4-.37.79-.75,1.18-1.13.35-.33.69-.67,1.05-1,.38-.34.68-.75.95-1.18.21-.33.3-.7.37-1.08.09-.47.09-.94.08-1.41,0-.18-.02-.37-.02-.55,0-.09.02-.16.11-.21Z"/>
  <path class="cls-1" d="M8.22,5.1s-.05.07-.07.1c-.11,0-.12-.01-.15-.11-.04-.15-.07-.3-.11-.46-.01-.05-.03-.1-.04-.15,0,0-.02,0-.03,0,0,.2.02.4.03.62-.04-.02-.06-.03-.08-.04-.04-.05-.08-.09-.11-.15-.03-.06-.08-.1-.15-.09-.11.02-.17-.04-.22-.12-.11-.2-.25-.39-.35-.6-.18-.38-.27-.78-.27-1.2,0-.47.14-.89.41-1.27.23-.34.54-.6.88-.83.11-.08.23-.12.37-.11.13.01.18.04.21.17.04.17.06.33.08.5.04.25.07.5.1.75.05.32.23.56.49.74.18.12.38.22.56.33.09.05.17.11.25.17.28.23.34.53.25.87-.09.34-.27.63-.51.88-.26.28-.57.5-.91.67-.26.13-.43.06-.53-.21-.04-.12-.05-.25-.08-.37,0-.04,0-.07-.01-.11,0,0-.02,0-.03,0Z"/>
  <path class="cls-1" d="M7.1,5.09s-.07-.06-.1-.09c-.04-.04-.07-.09-.14-.05-.02.01-.07-.01-.1-.03-.07-.04-.14-.09-.21-.13-.03-.02-.07-.03-.1-.05,0,0-.01.01-.02.02.2.28.39.57.59.86.02-.02.05-.05.07-.07.09-.09.18-.17.3-.22.37-.15.72.16.73.46,0,.09,0,.19-.02.27-.07.26-.27.4-.53.39-.26,0-.49-.19-.54-.44-.02-.08-.02-.16-.02-.25,0-.06-.02-.09-.08-.12-.41-.15-.83-.26-1.26-.29-.34-.03-.69-.04-1.03-.06-.43-.03-.87-.05-1.3-.16-.19-.05-.37-.11-.52-.23-.2-.16-.29-.39-.22-.64.12-.4.39-.66.77-.82.2-.09.42-.13.63-.16.07-.01.15-.03.22-.05.11-.03.18-.11.2-.22.01-.06.03-.12.03-.18,0-.1.05-.17.13-.23.16-.13.35-.15.54-.12.36.07.66.24.92.5.33.33.59.71.78,1.14.11.23.2.47.3.71.03.08.05.15-.03.23Z"/>
  <path class="cls-1" d="M22.96,12.46c-.64.02-1.24-.08-1.83-.25-.24-.07-.47-.15-.69-.28-.03-.02-.06-.04-.09-.06-.06-.05-.08-.12-.06-.19.03-.07.1-.12.17-.11.05,0,.11.03.16.05.52.27,1.09.39,1.67.45.4.04.81.04,1.22.01.45-.03.88-.13,1.28-.34.18-.1.35-.21.48-.38.17-.22.22-.48.17-.75-.02-.12-.1-.22-.2-.3-.12-.09-.25-.16-.39-.21-.37-.11-.74-.17-1.12-.2-.53-.05-1.06-.1-1.59-.15-.42-.04-.83-.09-1.24-.18-.4-.09-.79-.22-1.15-.43-.36-.21-.64-.49-.74-.9-.09-.36-.05-.71.09-1.05.16-.39.45-.69.78-.94.47-.35,1-.57,1.56-.72.56-.16,1.14-.26,1.72-.29.29-.01.58-.03.88-.02.48.02.95.09,1.41.22.44.12.83.32,1.14.65.33.35.42.77.33,1.24-.02.1-.09.15-.19.14-.09,0-.15-.07-.15-.18,0-.09,0-.17,0-.26.02-.35-.14-.62-.4-.84-.24-.2-.53-.32-.82-.41-.37-.11-.75-.18-1.13-.19-.25,0-.5-.02-.74-.02-.88.02-1.74.16-2.56.48-.41.16-.79.39-1.11.7-.3.29-.48.64-.49,1.06-.01.38.14.67.43.91.25.21.54.32.84.41.53.15,1.07.23,1.62.29.45.04.9.07,1.34.12.48.05.96.09,1.41.25.16.06.32.14.47.23.25.16.36.4.38.69.02.45-.16.81-.5,1.1-.38.32-.83.47-1.31.57-.36.07-.72.1-1.06.08Z"/>
  <path class="cls-1" d="M6.65,6.25c-.15.02-.29.04-.46.07.26.06.48.1.71.15,0,0,.01.02.03.04-.07.05-.14.09-.24.15.08.01.13.02.18.03.03,0,.07,0,.1,0,.16.03.23.11.19.27-.04.17-.1.33-.17.49-.17.38-.4.72-.73.99-.22.18-.47.32-.76.37-.51.1-.94-.16-1.1-.66-.05-.15-.09-.29-.13-.44-.08-.27-.22-.5-.45-.66-.09-.07-.21-.11-.31-.17-.04-.02-.09-.03-.13-.05-.22-.1-.27-.37-.09-.54.35-.32.76-.51,1.22-.58.45-.07.89-.03,1.32.07.19.04.38.1.57.16.13.04.21.15.25.29Z"/>
</svg>